<?xml version="1.0" encoding="UTF-8"?>
<svg id="Layer_1" data-name="Layer 1" xmlns="http://www.w3.org/2000/svg" viewBox="0 0 192 192">
  <defs>
    <style>
      .cls-1 {
        fill: #fff;
      }
    </style>
  </defs>
  <rect x="0" y="0" width="192" height="192"/>
  <g>
    <path class="cls-1" d="M77.37,111.08c8.68-5.56,19.19-6.49,29-8.89,9.09-2.22,19.41-5.62,20.3-16.55-13.07-3.58-18.72-19.16-11-30.43,7.84-11.44,25.1-11.39,32.86.12s1.66,27.12-11.65,30.53c-.88,6.98-3.81,13.37-9.3,17.84-8.8,7.18-21.01,8.31-31.68,10.88-7.18,1.73-16.41,4.03-18.13,12.39,13.09,3.51,18.74,19.15,11.02,30.41s-24.09,11.49-32.18.79c-8.61-11.37-3.01-27.63,10.62-31.29l.17-.23.04-60.24-.2-.59c-13.2-3.49-19.01-19.14-11.22-30.5,6.14-8.96,18.56-11.24,27.59-5.15,11.56,7.79,11.55,25.14,0,32.94-1.95,1.31-4.03,2.12-6.23,2.92v45.04ZM71.17,36.76c-12.54,1.42-10.93,20.87,2.13,19.83,12.97-1.03,11.39-21.36-2.13-19.83ZM130.82,56.65c-12.54,1.42-10.93,20.87,2.13,19.83,12.97-1.03,11.39-21.36-2.13-19.83ZM71.17,136.2c-12.54,1.42-10.93,20.87,2.13,19.83,12.97-1.03,11.39-21.36-2.13-19.83Z"/>
    <path d="M71.17,36.76c13.51-1.53,15.1,18.8,2.13,19.83-13.06,1.04-14.67-18.41-2.13-19.83Z"/>
    <path d="M130.82,56.65c13.51-1.53,15.1,18.8,2.13,19.83-13.06,1.04-14.67-18.41-2.13-19.83Z"/>
    <path d="M71.17,136.2c13.51-1.53,15.1,18.8,2.13,19.83-13.06,1.04-14.67-18.41-2.13-19.83Z"/>
  </g>
</svg>