<?xml version="1.0" encoding="UTF-8"?>
<svg id="Layer_1" data-name="Layer 1" xmlns="http://www.w3.org/2000/svg" viewBox="0 0 512 512">
  <defs>
    <style>
      .cls-1 {
        fill: #fff;
      }
    </style>
  </defs>
  <rect x="0" y="0" width="512" height="512"/>
  <g>
    <path class="cls-1" d="M206.33,295.77c23.24-14.88,51.38-17.37,77.62-23.78,24.32-5.95,51.95-15.05,54.34-44.3-34.98-9.59-50.12-51.28-29.44-81.44,21-30.63,67.18-30.48,87.95.32,20.86,30.94,4.44,72.6-31.18,81.74-2.35,18.68-10.2,35.79-24.89,47.77-23.55,19.21-56.23,22.25-84.79,29.12-19.21,4.62-43.92,10.78-48.54,33.17,35.05,9.41,50.16,51.27,29.5,81.4-20.24,29.53-64.47,30.75-86.13,2.12-23.03-30.45-8.04-73.97,28.44-83.77l.45-.61.1-161.25-.55-1.58c-35.32-9.34-50.89-51.23-30.04-81.65,16.44-23.97,49.67-30.09,73.84-13.79,30.94,20.86,30.93,67.31,0,88.16-5.22,3.52-10.79,5.67-16.67,7.82v120.57ZM189.71,96.83c-33.57,3.8-29.26,55.86,5.7,53.08s30.48-57.17-5.7-53.08ZM349.41,150.06c-33.57,3.8-29.26,55.86,5.7,53.08,34.73-2.76,30.48-57.17-5.7-53.08ZM189.71,362.99c-33.57,3.8-29.26,55.86,5.7,53.08,34.73-2.76,30.48-57.17-5.7-53.08Z"/>
    <path d="M189.71,96.83c36.18-4.09,40.43,50.31,5.7,53.08s-39.27-49.28-5.7-53.08Z"/>
    <path d="M349.41,150.06c36.18-4.09,40.43,50.31,5.7,53.08-34.96,2.78-39.27-49.28-5.7-53.08Z"/>
    <path d="M189.71,362.99c36.18-4.09,40.43,50.31,5.7,53.08-34.96,2.78-39.27-49.28-5.7-53.08Z"/>
  </g>
</svg>