<?xml version="1.0" encoding="UTF-8"?>
<svg id="Layer_1" data-name="Layer 1" xmlns="http://www.w3.org/2000/svg" viewBox="0 0 32 32">
  <defs>
    <style>
      .cls-1 {
        fill: #fff;
      }
    </style>
  </defs>
  <rect x="0" y="0" width="32" height="32"/>
  <g>
    <path class="cls-1" d="M12.77,18.84c1.46-.94,3.23-1.09,4.89-1.5,1.53-.37,3.27-.95,3.42-2.79-2.2-.6-3.16-3.23-1.85-5.13s4.23-1.92,5.54.02.28,4.57-1.96,5.15c-.15,1.18-.64,2.25-1.57,3.01-1.48,1.21-3.54,1.4-5.34,1.83-1.21.29-2.76.68-3.06,2.09,2.21.59,3.16,3.23,1.86,5.12s-4.06,1.94-5.42.13c-1.45-1.92-.51-4.66,1.79-5.27l.03-.04v-10.15s-.03-.1-.03-.1c-2.22-.59-3.2-3.22-1.89-5.14,1.03-1.51,3.13-1.89,4.65-.87,1.95,1.31,1.95,4.24,0,5.55-.33.22-.68.36-1.05.49v7.59ZM11.72,6.32c-2.11.24-1.84,3.52.36,3.34s1.92-3.6-.36-3.34ZM21.77,9.67c-2.11.24-1.84,3.52.36,3.34s1.92-3.6-.36-3.34ZM11.72,23.08c-2.11.24-1.84,3.52.36,3.34s1.92-3.6-.36-3.34Z"/>
    <path d="M11.72,6.32c2.28-.26,2.54,3.17.36,3.34s-2.47-3.1-.36-3.34Z"/>
    <path d="M21.77,9.67c2.28-.26,2.54,3.17.36,3.34s-2.47-3.1-.36-3.34Z"/>
    <path d="M11.72,23.08c2.28-.26,2.54,3.17.36,3.34s-2.47-3.1-.36-3.34Z"/>
  </g>
</svg>